<svg width="1000" height="1000" version="1.1" xmlns="http://www.w3.org/2000/svg">


	<defs>
		<linearGradient id="qolrialrleb5sz3shgp3rz452p0ssoophc6c5mdxrl6owh1lyr" x1="0.000000" y1="1.000000" x2="1.000000" y2="0.000000" gradientUnits="objectBoundingBox">
			<stop offset="0.000000" stop-color="#00000000" />
			<stop offset="1.000000" stop-color="#ff000088" />
		</linearGradient>
		<linearGradient id="yd8cenbrty40yk1rsbbgajybmb0c3whhofe9npjdrovgltdt0o" x1="0.000000" y1="0.000000" x2="300.000000" y2="300.000000" gradientUnits="userSpaceOnUse">
			<stop offset="0.000000" stop-color="#00000000" />
			<stop offset="1.000000" stop-color="#0000ff88" />
		</linearGradient>
		<linearGradient id="7g71hb0q7pb0v8e822z7zpiv2m8y0yptueqro2ramsi3aop24w" x1="0.000000" y1="0.000000" x2="1.000000" y2="1.000000" gradientUnits="objectBoundingBox">
			<stop offset="0.000000" stop-color="#00000000" />
			<stop offset="1.000000" stop-color="#000000ff" />
		</linearGradient>
		<linearGradient id="z2eia7j2itivqgnaytlnh9vie1g79peanger17kydsze2ffyxh" x1="0.000000" y1="1.000000" x2="1.000000" y2="0.000000" gradientUnits="objectBoundingBox">
			<stop offset="0.000000" stop-color="#00000000" />
			<stop offset="1.000000" stop-color="#00ff0088" />
		</linearGradient>
		<linearGradient id="ecrhfruv3lxqcru2iacm9dscbd7l79k21s9l70wzsn1yhe4y21" x1="0.000000" y1="0.000000" x2="300.000000" y2="300.000000" gradientUnits="userSpaceOnUse">
			<stop offset="0.000000" stop-color="#00000000" />
			<stop offset="1.000000" stop-color="#ffff0088" />
		</linearGradient>
		<linearGradient id="lehp5pumpc7wn5y63mijf68j4lvao4unw0vvvr3cuigvqacfhj" x1="0.000000" y1="0.000000" x2="1.000000" y2="1.000000" gradientUnits="objectBoundingBox">
			<stop offset="0.000000" stop-color="#00000000" />
			<stop offset="1.000000" stop-color="#000000ff" />
		</linearGradient>
		<linearGradient id="f4lz61ztlyx1b87khrsts0oxk54fxrus10sb1x7j5vycxxqf2j" x1="0.000000" y1="1.000000" x2="1.000000" y2="0.000000" gradientUnits="objectBoundingBox">
			<stop offset="0.000000" stop-color="#00000000" />
			<stop offset="1.000000" stop-color="#00ffff88" />
		</linearGradient>
		<linearGradient id="p75hzd2m2kswrxioztizb7gafwkjze0cjba2qfqfd1u4lvpyo6" x1="0.000000" y1="0.000000" x2="1.000000" y2="1.000000" gradientUnits="objectBoundingBox">
			<stop offset="0.000000" stop-color="#00000000" />
			<stop offset="1.000000" stop-color="#ff00ff88" />
		</linearGradient>
	</defs>
	<rect x="0" y="0" rx="0" ry="0" width="300.000000" height="300.000000" fill="url(#qolrialrleb5sz3shgp3rz452p0ssoophc6c5mdxrl6owh1lyr)" transform="translate(200.000000,100.000000) rotate(90.000000) scale(1.400000,1.000000) rotate(-70.000000)"/>
	<rect x="0" y="0" rx="0" ry="0" width="300.000000" height="300.000000" fill="url(#yd8cenbrty40yk1rsbbgajybmb0c3whhofe9npjdrovgltdt0o)" transform="translate(200.000000,100.000000) rotate(90.000000) scale(1.400000,1.000000) rotate(-70.000000)"/>
	<rect x="0" y="0" rx="0" ry="0" width="300.000000" height="300.000000" fill="transparent" stroke="url(#7g71hb0q7pb0v8e822z7zpiv2m8y0yptueqro2ramsi3aop24w)" stroke-width="10.000000" transform="translate(200.000000,100.000000) rotate(90.000000) scale(1.400000,1.000000) rotate(-70.000000)"/>
	<rect x="0" y="0" rx="0" ry="0" width="300.000000" height="300.000000" fill="url(#z2eia7j2itivqgnaytlnh9vie1g79peanger17kydsze2ffyxh)" transform="translate(0.000000,0.000000) rotate(0.000000) scale(1.000000,1.000000) rotate(0.000000)"/>
	<rect x="0" y="0" rx="0" ry="0" width="300.000000" height="300.000000" fill="url(#ecrhfruv3lxqcru2iacm9dscbd7l79k21s9l70wzsn1yhe4y21)" transform="translate(0.000000,0.000000) rotate(0.000000) scale(1.000000,1.000000) rotate(0.000000)"/>
	<rect x="0" y="0" rx="0" ry="0" width="300.000000" height="300.000000" fill="transparent" stroke="url(#lehp5pumpc7wn5y63mijf68j4lvao4unw0vvvr3cuigvqacfhj)" stroke-width="10.000000" transform="translate(0.000000,0.000000) rotate(0.000000) scale(1.000000,1.000000) rotate(0.000000)"/>
	<ellipse cx="100.000000" cy="200.000000" rx="100.000000" ry="200.000000" fill="url(#f4lz61ztlyx1b87khrsts0oxk54fxrus10sb1x7j5vycxxqf2j)" transform="translate(0.000000,0.000000) rotate(0.000000) scale(1.000000,1.000000) rotate(0.000000)"/>
	<ellipse cx="100.000000" cy="200.000000" rx="100.000000" ry="200.000000" fill="url(#p75hzd2m2kswrxioztizb7gafwkjze0cjba2qfqfd1u4lvpyo6)" transform="translate(0.000000,0.000000) rotate(0.000000) scale(1.000000,1.000000) rotate(0.000000)"/>



</svg>